<?xml version="1.0" encoding="iso-8859-1"?>
<!-- Generator: Adobe Illustrator 19.0.0, SVG Export Plug-In . SVG Version: 6.00 Build 0)  -->
<svg version="1.1" id="Capa_1" xmlns="http://www.w3.org/2000/svg" xmlns:xlink="http://www.w3.org/1999/xlink" x="0px" y="0px"
	 viewBox="0 0 512 512" style="enable-background:new 0 0 512 512;" xml:space="preserve">
<g>
	<g>
		<rect x="316.092" y="81.502" width="15.673" height="15.673"/>
	</g>
</g>
<g>
	<g>
		<rect x="331.766" y="109.714" width="15.673" height="15.673"/>
	</g>
</g>
<g>
	<g>
		<rect x="195.918" y="297.796" width="15.673" height="15.673"/>
	</g>
</g>
<g>
	<g>
		<rect x="98.22" y="336.457" width="15.673" height="15.673"/>
	</g>
</g>
<g>
	<g>
		<path d="M201.143,219.429h-31.347c-10.082,0-18.286,8.203-18.286,18.286v31.347c0,10.082,8.203,18.286,18.286,18.286h31.347
			c10.082,0,18.286-8.203,18.286-18.286v-31.347C219.429,227.632,211.225,219.429,201.143,219.429z M203.755,269.061
			c0,1.441-1.171,2.612-2.612,2.612h-31.347c-1.441,0-2.612-1.171-2.612-2.612v-31.347c0-1.441,1.171-2.612,2.612-2.612h31.347
			c1.441,0,2.612,1.171,2.612,2.612V269.061z"/>
	</g>
</g>
<g>
	<g>
		<rect x="332.278" y="417.959" width="15.674" height="15.673"/>
	</g>
</g>
<g>
	<g>
		<path d="M410.122,391.837c-12.963,0-23.51,10.547-23.51,23.51s10.547,23.51,23.51,23.51s23.51-10.547,23.51-23.51
			S423.085,391.837,410.122,391.837z M410.122,423.184c-4.322,0-7.837-3.515-7.837-7.837c0-4.322,3.515-7.837,7.837-7.837
			c4.322,0,7.837,3.515,7.837,7.837C417.959,419.669,414.444,423.184,410.122,423.184z"/>
	</g>
</g>
<g>
	<g>
		<path d="M104.49,391.837c-12.963,0-23.51,10.547-23.51,23.51s10.547,23.51,23.51,23.51S128,428.31,128,415.347
			S117.453,391.837,104.49,391.837z M104.49,423.184c-4.322,0-7.837-3.515-7.837-7.837c0-4.322,3.515-7.837,7.837-7.837
			s7.837,3.515,7.837,7.837C112.327,419.669,108.812,423.184,104.49,423.184z"/>
	</g>
</g>
<g>
	<g>
		<rect x="164.571" y="366.759" width="41.796" height="15.674"/>
	</g>
</g>
<g>
	<g>
		<rect x="164.571" y="340.637" width="41.796" height="15.673"/>
	</g>
</g>
<g>
	<g>
		<path d="M472.816,156.735H335.935v-10.449h66.367l-14.591-19.455c3.688-1.411,7.503-3.588,9.873-7.701
			c3.374-5.822,1.903-12.03,0.722-17.017c-0.472-1.995-0.961-4.056-0.961-5.46c0-1.403,0.489-3.464,0.961-5.46
			c1.182-4.987,2.653-11.195-0.714-17.003c-3.449-5.98-9.922-7.878-14.649-9.264c-1.892-0.555-3.85-1.128-4.929-1.751
			c-0.981-0.568-2.382-1.927-3.74-3.24c-3.578-3.466-8.477-8.212-15.592-8.212c-7.121,0-12.025,4.748-15.604,8.214
			c-1.172,1.136-2.378,2.302-3.315,2.964l-11.91-15.881h-70.532l-12.312,16.423c-15.334,3.27-26.871,16.915-26.871,33.21
			c0,0.832,0.037,1.657,0.097,2.479l-35.36,47.154h71.558v10.449H64.784c-10.463,0-20.301,4.076-27.704,11.479
			c-7.403,7.403-11.479,17.242-11.479,27.704v7.837h25.091L32.643,303.02h-3.908C12.891,303.02,0,315.911,0,331.755v101.878h58.363
			c7.298,18.341,25.216,31.347,46.127,31.347s38.829-13.006,46.127-31.347h165.987v-15.673h-17.505l21.942-36.571h52.935
			c-8.352,8.886-13.485,20.831-13.485,33.959c0,27.367,22.266,49.633,49.633,49.633c20.911,0,38.829-13.006,46.127-31.347H512
			V203.755v-7.837C512,174.312,494.423,156.735,472.816,156.735z M472.816,172.408c10.217,0,18.932,6.552,22.167,15.674H459.49
			l-9.404-15.674H472.816z M459.755,224.653v3.657c0,6.626-5.391,12.016-12.016,12.016c-6.626,0-12.016-5.391-12.016-12.016v-3.657
			H459.755z M431.808,172.408l21.943,36.571h-20.358l-13.166-36.571H431.808z M403.57,172.408l13.166,36.571h-21.603l-4.389-36.571
			H403.57z M420.049,224.653v3.657c0,6.626-5.391,12.016-12.016,12.016c-6.626,0-12.016-5.391-12.016-12.016v-3.657H420.049z
			 M361.696,172.408h13.263l4.389,36.571h-22.04L361.696,172.408z M356.31,224.653h24.033v3.657c0,6.626-5.391,12.016-12.016,12.016
			c-6.626,0-12.016-5.391-12.016-12.016V224.653z M345.91,172.408l-4.389,36.571h-21.603l13.166-36.571H345.91z M300.931,228.31
			c0,6.626-5.391,12.016-12.016,12.016c-6.626,0-12.016-5.391-12.016-12.016v-3.657h24.033V228.31z M457.989,329.143
			c-2.939,6.172-9.24,10.449-16.52,10.449H295.184c-7.281,0-13.581-4.277-16.52-10.449H457.989z M282.902,208.98l21.943-36.571
			h11.581L303.26,208.98H282.902z M270.106,156.735v-10.449h50.155v10.449H270.106z M316.604,224.653h24.033v3.657
			c0,6.626-5.391,12.016-12.016,12.016c-6.626,0-12.016-5.391-12.016-12.016V224.653z M353.981,71.196
			c1.324-1.281,3.786-3.666,4.678-3.801c0.936,0.142,3.39,2.519,4.709,3.797c1.94,1.881,4.141,4.012,6.8,5.554
			c2.715,1.565,5.716,2.446,8.362,3.221c1.783,0.523,4.734,1.389,5.441,2.022c0.164,1.025-0.509,3.867-0.918,5.592
			c-0.649,2.737-1.383,5.839-1.383,9.074s0.735,6.336,1.383,9.074c0.405,1.711,1.07,4.518,0.923,5.565
			c-0.815,0.688-3.684,1.53-5.429,2.042c-0.254,0.074-0.522,0.156-0.784,0.233L349.166,75.44
			C350.961,74.116,352.543,72.588,353.981,71.196z M370.954,130.612h-94.041l47.02-62.694L370.954,130.612z M265.16,62.694h11.754
			l-4.85,6.468c-2.581-1.885-5.405-3.389-8.403-4.467L265.16,62.694z M225.975,130.612h-11.757l10.482-13.979
			c1.872,2.57,4.09,4.888,6.617,6.856L225.975,130.612z M233.812,96.653c0-10.082,8.203-18.286,18.286-18.286
			c3.862,0,7.511,1.186,10.552,3.346l-21.931,29.242C236.45,107.542,233.812,102.293,233.812,96.653z M245.567,130.612
			l50.939-67.918h11.755l-50.939,67.918H245.567z M66.623,203.755h63.99v99.265H48.574L66.623,203.755z M54.857,415.347
			c0,0.877,0.024,1.747,0.069,2.612H15.673v-13.061h18.286v-15.673H15.673v-10.71h18.286v-15.673H15.673v-10.71h18.286v-15.673
			H15.673v-4.702c0-7.203,5.859-13.061,13.061-13.061h10.449h6.541h84.888v54.477c-7.593-4.721-16.543-7.456-26.122-7.456
			C77.123,365.714,54.857,387.98,54.857,415.347z M104.49,449.306c-18.726,0-33.959-15.234-33.959-33.959
			c0-18.726,15.234-33.959,33.959-33.959s33.959,15.234,33.959,33.959C138.449,434.073,123.215,449.306,104.49,449.306z
			 M42.607,188.082c1.154-3.266,3.032-6.26,5.556-8.783c4.443-4.443,10.346-6.89,16.621-6.89h221.784l-9.404,15.674H42.607z
			 M224.653,417.959h-70.6c0.045-0.865,0.069-1.736,0.069-2.612s-0.024-1.747-0.069-2.612h70.6V417.959z M224.653,397.061h-74.036
			c-1.178-2.96-2.631-5.78-4.331-8.43V203.755h78.367V397.061z M410.122,449.306c-18.726,0-33.959-15.234-33.959-33.959
			c0-18.726,15.234-33.959,33.959-33.959s33.959,15.234,33.959,33.959C444.082,434.073,428.848,449.306,410.122,449.306z
			 M496.327,417.959h-36.64c0.045-0.865,0.069-1.736,0.069-2.612c0-13.128-5.134-25.073-13.485-33.959h50.057V417.959z
			 M496.327,365.714H312.167l-31.348,52.245h-40.493V203.755h27.433l-6.535,10.891v13.664c0,14.609,11.374,26.603,25.731,27.612
			v57.547h-25.731v7.837c0,18.726,15.234,33.959,33.959,33.959h146.286c18.726,0,33.959-15.234,33.959-33.959v-7.837h-172.8V252.35
			c2.265-1.298,4.331-2.905,6.139-4.766c5.035,5.185,12.072,8.416,19.853,8.416c7.781,0,14.818-3.231,19.853-8.416
			c5.035,5.185,12.072,8.416,19.853,8.416c7.781,0,14.818-3.231,19.853-8.416c5.035,5.185,12.072,8.416,19.853,8.416
			s14.818-3.231,19.853-8.416c1.808,1.861,3.873,3.468,6.139,4.766v48.058h15.673v-44.485c14.357-1.009,25.731-13.004,25.731-27.612
			v-13.664l-6.535-10.891h27.433V365.714z"/>
	</g>
</g>
<g>
	<g>
		<rect x="300.419" y="109.714" width="15.673" height="15.673"/>
	</g>
</g>
<g>
</g>
<g>
</g>
<g>
</g>
<g>
</g>
<g>
</g>
<g>
</g>
<g>
</g>
<g>
</g>
<g>
</g>
<g>
</g>
<g>
</g>
<g>
</g>
<g>
</g>
<g>
</g>
<g>
</g>
</svg>
